<svg width="1303" height="839" viewBox="0 0 1303 839" fill="none" xmlns="http://www.w3.org/2000/svg">
<circle cx="3.5" cy="3.5" r="3.5" fill="white"/>
<circle cx="3.5" cy="3.5" r="3.5" fill="white"/>
<circle cx="3.5" cy="3.5" r="3.5" fill="white"/>
<circle cx="201.5" cy="236.5" r="3.5" fill="white"/>
<circle cx="201.5" cy="236.5" r="3.5" fill="white"/>
<circle cx="201.5" cy="236.5" r="3.5" fill="white"/>
<circle cx="65.5" cy="479.5" r="3.5" fill="white"/>
<circle cx="65.5" cy="479.5" r="3.5" fill="white"/>
<circle cx="65.5" cy="479.5" r="3.5" fill="white"/>
<circle cx="444.5" cy="10.5" r="3.5" fill="white"/>
<circle cx="444.5" cy="10.5" r="3.5" fill="white"/>
<circle cx="444.5" cy="10.5" r="3.5" fill="white"/>
<circle cx="201.5" cy="236.5" r="3.5" fill="white"/>
<circle cx="201.5" cy="236.5" r="3.5" fill="white"/>
<circle cx="201.5" cy="236.5" r="3.5" fill="white"/>
<circle cx="1097.5" cy="452.5" r="3.5" fill="white"/>
<circle cx="1097.5" cy="452.5" r="3.5" fill="white"/>
<circle cx="1097.5" cy="452.5" r="3.5" fill="white"/>
<circle cx="1299.5" cy="264.5" r="3.5" fill="white"/>
<circle cx="1299.5" cy="264.5" r="3.5" fill="white"/>
<circle cx="1299.5" cy="264.5" r="3.5" fill="white"/>
<circle cx="1182.5" cy="835.5" r="3.5" fill="white"/>
<circle cx="1182.5" cy="835.5" r="3.5" fill="white"/>
<circle cx="1182.5" cy="835.5" r="3.5" fill="white"/>
<circle cx="644.5" cy="312.5" r="3.5" fill="white"/>
<circle cx="644.5" cy="312.5" r="3.5" fill="white"/>
<circle cx="644.5" cy="312.5" r="3.5" fill="white"/>
<circle cx="1104.5" cy="72.5" r="3.5" fill="white"/>
<circle cx="1104.5" cy="72.5" r="3.5" fill="white"/>
<circle cx="1104.5" cy="72.5" r="3.5" fill="white"/>
</svg>
