<svg width="760" height="602" viewBox="0 0 760 602" fill="none" xmlns="http://www.w3.org/2000/svg">
<g clip-path="url(#clip0)">
<path d="M495.851 173.813C482.371 182.852 465.046 180.652 465.046 180.652C465.046 180.652 469.576 163.797 483.056 154.757C496.536 145.718 513.861 147.918 513.861 147.918C513.861 147.918 509.331 164.774 495.851 173.813Z" fill="#35328C"/>
<path d="M466.747 148.53C459.666 163.128 464.257 179.967 464.257 179.967C464.257 179.967 480.329 173.138 487.41 158.54C494.492 143.942 489.9 127.103 489.9 127.103C489.9 127.103 473.828 133.932 466.747 148.53Z" fill="#35328C"/>
<path d="M473.657 150.074C475.007 166.24 464.66 180.3 464.66 180.3C464.66 180.3 452.123 168.149 450.773 151.982C449.423 135.815 459.771 121.756 459.771 121.756C459.771 121.756 472.307 133.907 473.657 150.074Z" fill="#3F3D56"/>
<path d="M493.359 167.189C477.152 168.103 464.66 180.3 464.66 180.3C464.66 180.3 478.445 191.015 494.653 190.101C510.861 189.187 523.353 176.99 523.353 176.99C523.353 176.99 509.567 166.275 493.359 167.189Z" fill="#3F3D56"/>
<path d="M195.786 148.732C212.016 149.08 224.926 160.834 224.926 160.834C224.926 160.834 211.523 172.023 195.293 171.676C179.064 171.328 166.153 159.574 166.153 159.574C166.153 159.574 179.556 148.385 195.786 148.732Z" fill="#35328C"/>
<path d="M114.191 93.3685C128.854 100.33 145.668 95.6093 145.668 95.6093C145.668 95.6093 138.708 79.6019 124.045 72.6405C109.383 65.679 92.5691 70.3997 92.5691 70.3997C92.5691 70.3997 99.5286 86.4071 114.191 93.3685Z" fill="#35328C"/>
<path d="M115.682 86.4506C131.848 84.9742 145.998 95.2039 145.998 95.2039C145.998 95.2039 133.938 107.827 117.772 109.304C101.606 110.78 87.4558 100.55 87.4558 100.55C87.4558 100.55 99.516 87.9271 115.682 86.4506Z" fill="#3F3D56"/>
<path d="M174.942 89.2477C173.392 105.396 183.565 119.583 183.565 119.583C183.565 119.583 196.251 107.587 197.8 91.4382C199.35 75.2895 189.176 61.1031 189.176 61.1031C189.176 61.1031 176.491 73.099 174.942 89.2477Z" fill="#3F3D56"/>
<path d="M251.075 188.287C242.596 202.121 245.514 219.329 245.514 219.329C245.514 219.329 262.178 214.107 270.657 200.274C279.137 186.44 276.219 169.232 276.219 169.232C276.219 169.232 259.555 174.453 251.075 188.287Z" fill="#3F3D56"/>
<path d="M226.476 338.697L227.712 337.862C223.357 331.545 220.978 324.077 220.88 316.407C220.914 305.187 226.429 294.809 231.763 284.772C232.753 282.909 233.739 281.052 234.688 279.197C238.673 271.629 241.848 263.664 244.161 255.431C252.434 224.708 244.289 188.461 222.374 158.47C204.989 134.678 179.073 113.873 143.146 94.8661L142.448 96.1832C178.17 115.082 203.92 135.743 221.169 159.349C242.821 188.979 250.877 224.753 242.721 255.044C240.434 263.176 237.297 271.044 233.361 278.518C232.415 280.367 231.432 282.217 230.445 284.073C225.027 294.27 219.424 304.813 219.388 316.403C219.487 324.372 221.954 332.132 226.476 338.697V338.697Z" fill="#3F3D56"/>
<path d="M72.328 96.8244C80.1524 96.8244 86.4953 90.4856 86.4953 82.6663C86.4953 74.8471 80.1524 68.5083 72.328 68.5083C64.5036 68.5083 58.1606 74.8471 58.1606 82.6663C58.1606 90.4856 64.5036 96.8244 72.328 96.8244Z" fill="#3F3D56"/>
<path d="M379.473 60.7576C365.564 37.2703 338.045 36.1757 338.045 36.1757C338.045 36.1757 311.23 32.7488 294.028 68.5203C277.994 101.862 255.866 134.054 290.465 141.86L296.715 122.421L300.585 143.307C305.512 143.661 310.454 143.745 315.389 143.56C352.443 142.364 387.73 143.909 386.594 130.622C385.084 112.958 392.857 83.3571 379.473 60.7576Z" fill="#2F2E41"/>
<path d="M393.016 335.177C393.016 335.177 375.564 365.989 388.944 368.315C402.324 370.64 411.051 341.572 411.051 341.572L393.016 335.177Z" fill="#A0616A"/>
<path d="M427.34 190.415C425.013 214.832 421.522 343.897 411.632 347.967C401.743 352.036 385.453 352.036 385.453 352.036V238.087C385.453 238.087 389.526 158.439 404.07 149.137H412.482C413.459 149.137 414.423 149.365 415.297 149.803C416.171 150.241 416.93 150.877 417.514 151.66C417.589 151.759 417.659 151.864 417.729 151.969C421.51 157.747 429.102 171.91 427.34 190.415Z" fill="#D0CDE1"/>
<path d="M276.374 374.419L278.701 437.789C278.701 437.789 271.139 499.996 277.538 519.181L296.154 522.088C296.154 522.088 317.097 459.881 314.188 437.789L326.405 374.419L295.572 335.467L276.374 374.419Z" fill="#A0616A"/>
<path d="M347.348 352.327L350.257 383.14L362.474 452.323C362.474 452.323 369.455 494.763 383.999 522.088L393.307 551.738L409.014 545.924C409.014 545.924 413.668 484.88 395.052 437.207L392.143 378.489L372.364 345.351L347.348 352.327Z" fill="#A0616A"/>
<path d="M380.508 252.912L300.808 237.797C300.808 237.797 277.538 274.423 269.975 376.745L288.009 381.396L293.245 354.071L296.736 383.14L358.402 388.954L364.219 358.722L368.292 390.698L399.706 385.465C399.706 385.465 396.798 276.167 380.508 252.912Z" fill="#2F2E41"/>
<path d="M300.517 517.146H273.175L270.266 534.587C270.266 534.587 235.361 585.748 261.54 582.841C287.719 579.935 288.3 565.982 288.3 565.982C288.3 565.982 299.354 555.517 300.517 550.285C301.681 545.052 297.608 532.262 297.608 532.262L300.517 517.146Z" fill="#2F2E41"/>
<path d="M411.051 535.169L385.453 540.401V578.19C385.453 578.19 377.891 615.398 399.415 613.073C420.94 610.747 417.45 579.353 417.45 579.353L411.051 535.169Z" fill="#2F2E41"/>
<path d="M331.932 122.394C348.961 122.394 362.765 108.599 362.765 91.5814C362.765 74.564 348.961 60.7686 331.932 60.7686C314.903 60.7686 301.099 74.564 301.099 91.5814C301.099 108.599 314.903 122.394 331.932 122.394Z" fill="#A0616A"/>
<path d="M326.114 117.162C326.114 117.162 335.422 137.51 333.095 140.998C330.768 144.486 379.636 138.673 379.636 138.673C379.636 138.673 357.529 105.534 357.529 98.5579L326.114 117.162Z" fill="#A0616A"/>
<path d="M252.232 306.689C252.232 306.689 234.779 337.502 248.159 339.828C261.54 342.153 270.266 313.084 270.266 313.084L252.232 306.689Z" fill="#A0616A"/>
<path opacity="0.15" d="M394.761 211.344C394.761 211.344 399.997 238.669 393.598 253.784C391.69 258.29 388.798 259.54 385.453 259.133V238.087C385.453 238.087 389.526 158.439 404.07 149.137H412.482C413.459 149.137 414.423 149.365 415.297 149.803C416.171 150.241 416.93 150.877 417.514 151.66L394.761 211.344Z" fill="black"/>
<path d="M375.269 126.325C367.657 127.955 340.821 133.499 330.538 132.932C329.905 132.895 329.273 133.014 328.697 133.278L322.042 136.347L291.637 150.74C290.853 151.111 290.217 151.736 289.833 152.513C289.449 153.291 289.339 154.175 289.521 155.023L300.463 206.05C300.642 206.88 300.541 207.745 300.176 208.511C299.811 209.277 299.202 209.901 298.445 210.284C289.554 214.772 263.315 230.257 298.772 241.576C340.658 254.947 349.966 252.04 358.693 249.715C367.419 247.389 384.872 268.9 391.271 253.784C396.938 240.399 393.481 217.441 392.615 212.359C392.5 211.684 392.569 210.99 392.813 210.35L414.475 153.527C414.812 152.64 414.811 151.66 414.47 150.775C414.129 149.89 413.472 149.162 412.627 148.731L387.741 136.042C387.382 135.859 387.053 135.621 386.768 135.336L378.794 127.367C378.341 126.913 377.78 126.58 377.164 126.398C376.549 126.216 375.897 126.191 375.269 126.325Z" fill="#D0CDE1"/>
<path d="M296.445 151.463H291.799C290.979 151.463 290.184 151.749 289.552 152.272C288.92 152.794 288.491 153.521 288.337 154.327L273.175 234.018L258.049 284.016C258.049 284.016 221.399 302.038 248.741 311.922C276.084 321.805 290.046 318.317 287.137 307.271C284.228 296.225 312.152 224.134 312.152 224.134L296.445 151.463Z" fill="#D0CDE1"/>
<path d="M341.413 56.1792C352.402 56.1792 361.311 47.2766 361.311 36.2947C361.311 25.3128 352.402 16.4102 341.413 16.4102C330.424 16.4102 321.516 25.3128 321.516 36.2947C321.516 47.2766 330.424 56.1792 341.413 56.1792Z" fill="#2F2E41"/>
<path d="M319.421 31.0619C319.422 26.1509 321.241 21.4138 324.528 17.763C327.815 14.1123 332.337 11.8063 337.224 11.2892C336.529 11.2155 335.829 11.1782 335.13 11.1774C332.516 11.1758 329.927 11.689 327.512 12.6875C325.096 13.6861 322.901 15.1505 321.052 16.9971C319.203 18.8438 317.737 21.0363 316.736 23.4496C315.735 25.8629 315.22 28.4496 315.22 31.0619C315.22 33.6742 315.735 36.2609 316.736 38.6742C317.737 41.0875 319.203 43.2801 321.052 45.1267C322.901 46.9733 325.096 48.4378 327.512 49.4363C329.927 50.4349 332.516 50.948 335.13 50.9464C335.829 50.9456 336.529 50.9083 337.224 50.8347C332.337 50.3176 327.815 48.0115 324.528 44.3608C321.241 40.7101 319.422 35.973 319.421 31.0619V31.0619Z" fill="#2F2E41"/>
<path d="M373.324 58.4936L346.137 44.2618L308.592 50.0837L300.825 84.3693L320.161 83.6256L325.563 71.0302V83.4185L334.485 83.075L339.664 63.0219L342.9 84.3693L374.619 83.7225L373.324 58.4936Z" fill="#2F2E41"/>
<path d="M362.474 93.7615C364.723 93.7615 366.546 90.573 366.546 86.6397C366.546 82.7064 364.723 79.5179 362.474 79.5179C360.225 79.5179 358.402 82.7064 358.402 86.6397C358.402 90.573 360.225 93.7615 362.474 93.7615Z" fill="#A0616A"/>
</g>
<defs>
<clipPath id="clip0">
<rect width="760" height="602" fill="white"/>
</clipPath>
</defs>
</svg>
