<svg width="390" height="301" viewBox="0 0 390 301" fill="none" xmlns="http://www.w3.org/2000/svg">
<path d="M352 151.604L346.189 176.502L341.472 196.701L337.712 212.811L332.998 233.01L317.594 299L126.71 214.972L112.679 208.795L94.9181 200.975L80.8819 194.798L64 187.365L73.5706 174.1L81.5292 163.07L91.5975 149.114L99.5539 138.091L189.087 14L283.934 94.1128L300.823 108.378L314.291 119.754L331.183 134.019L352 151.604Z" fill="white"/>
<path d="M74.7561 220.886C61.9964 213.785 54.0531 204.09 51.1466 192.071C48.9885 183.147 49.6087 173.105 52.9896 162.224C55.496 154.201 59.2539 146.623 64.1247 139.769C89.9654 103.254 92.2977 79.4605 89.7039 65.9302C86.8601 51.0946 77.6205 44.9332 77.5274 44.8727L77.9263 44.2604C78.0217 44.3223 87.5047 50.6268 90.417 65.7635C92.0958 74.4898 91.306 84.4402 88.0693 95.338C84.0411 108.901 76.186 123.991 64.7224 140.191C59.8959 146.982 56.1722 154.491 53.6884 162.44C48.1433 180.286 47.3588 204.802 75.1123 220.248L74.7561 220.886Z" fill="#2F2E41"/>
<path d="M80.892 220.886C93.6517 213.785 101.595 204.09 104.502 192.071C106.66 183.147 106.039 173.105 102.659 162.224C100.152 154.201 96.3943 146.623 91.5234 139.769C65.6827 103.254 63.3505 79.4605 65.9442 65.9302C68.7881 51.0946 78.0276 44.9332 78.1207 44.8727L77.7218 44.2604C77.6265 44.3223 68.1434 50.6268 65.2312 65.7635C63.5523 74.4898 64.3422 84.4402 67.5788 95.338C71.6071 108.901 79.4622 123.991 90.9257 140.191C95.7522 146.982 99.476 154.491 101.96 162.44C107.505 180.286 108.289 204.802 80.5358 220.248L80.892 220.886Z" fill="#2F2E41"/>
<path d="M358.996 190.209C346.237 183.108 338.293 173.413 335.387 161.394C333.229 152.47 333.849 142.428 337.23 131.546C339.736 123.524 343.494 115.946 348.365 109.092C374.206 72.577 376.538 48.7835 373.944 35.2532C371.1 20.4175 361.861 14.2561 361.768 14.1957L362.166 13.5833C362.262 13.6452 371.745 19.9498 374.657 35.0864C376.336 43.8128 375.546 53.7631 372.309 64.6609C368.281 78.2237 360.426 93.3144 348.963 109.514C344.136 116.305 340.412 123.813 337.929 131.763C332.383 149.609 331.599 174.125 359.352 189.571L358.996 190.209Z" fill="#2F2E41"/>
<path d="M365.132 190.209C377.892 183.108 385.835 173.413 388.742 161.394C390.9 152.47 390.28 142.428 386.899 131.547C384.392 123.524 380.634 115.946 375.764 109.092C349.923 72.577 347.591 48.7835 350.184 35.2532C353.028 20.4175 362.268 14.2562 362.361 14.1957L361.962 13.5833C361.867 13.6452 352.384 19.9498 349.471 35.0864C347.792 43.8128 348.582 53.7631 351.819 64.6609C355.847 78.2237 363.702 93.3144 375.166 109.514C379.992 116.305 383.716 123.813 386.2 131.763C391.745 149.609 392.53 174.125 364.776 189.571L365.132 190.209Z" fill="#2F2E41"/>
<path d="M171.135 109.541C161.548 93.3689 142.581 92.6152 142.581 92.6152C142.581 92.6152 124.099 90.2557 112.242 114.885C101.191 137.842 85.9398 160.008 109.787 165.382L114.095 151.997L116.762 166.378C120.158 166.622 123.564 166.68 126.966 166.552C152.504 165.729 176.826 166.793 176.043 157.644C175.002 145.482 180.359 125.101 171.135 109.541Z" fill="#2F2E41"/>
<path d="M131.785 143.387C135.088 150.682 137.171 159.377 138.415 169.036L164.936 167.381C158.839 158.756 156.815 148.855 159.135 137.595L131.785 143.387Z" fill="#FFB8B8"/>
<path opacity="0.2" d="M131.785 143.387C135.088 150.682 137.171 159.377 138.415 169.036L164.936 167.381C158.839 158.756 156.815 148.855 159.135 137.595L131.785 143.387Z" fill="black"/>
<path d="M8.73285 282.281C8.73285 282.281 -4.99364 289.621 1.97183 295.888C8.9373 302.155 18.1383 287.593 18.1383 287.593L8.73285 282.281Z" fill="#FFB8B8"/>
<path d="M176.54 260.877L176.326 270.904L175.868 292.572V292.576L175.735 298.851H87.9564L91.5239 279.074L91.5275 279.06L94.7218 261.36L96.1474 253.433V253.429L168.253 243.501L176.54 260.877Z" fill="#2F2E41"/>
<path d="M176.54 260.878L176.324 270.906C150.814 270.252 111.272 264.105 94.7209 261.358L96.1464 253.431L168.252 243.502L176.54 260.878Z" fill="#3F3D56"/>
<path d="M144.631 150.42C156.074 150.42 165.351 141.159 165.351 129.735C165.351 118.311 156.074 109.049 144.631 109.049C133.188 109.049 123.911 118.311 123.911 129.735C123.911 141.159 133.188 150.42 144.631 150.42Z" fill="#FFB8B8"/>
<path d="M184.413 272.048C184.413 272.048 186.899 294.388 171.981 292.733L169.495 270.393L156.234 257.155L118.938 256.327L91.5881 281.977C91.5881 281.977 90.7593 255.5 94.0744 253.018C97.3896 250.535 104.849 244.743 104.849 244.743V240.606L82.4713 195.099C82.4713 195.099 95.732 167.795 106.506 166.968L120.596 166.14C120.596 166.14 125.569 163.658 125.569 162.831C125.569 162.003 124.74 155.384 128.884 157.039C128.884 157.039 129.257 148.55 133.625 151.139C133.625 151.139 147.374 161.896 161.331 151.611C161.331 151.611 167.837 150.42 167.008 153.729C166.18 157.039 167.008 159.521 168.666 159.521C170.324 159.521 177.783 162.003 177.783 163.658C177.783 164.014 178.321 167.439 179.167 172.594V172.602C182.242 191.393 189.386 233.16 189.386 233.16C189.386 233.16 196.845 243.916 184.413 272.048Z" fill="#35328C"/>
<path d="M88.273 190.962L82.4714 195.099L29.4285 262.946L1.24951 285.286C1.24951 285.286 16.9966 282.804 13.6814 296.042L110.65 240.606L88.273 190.962Z" fill="#35328C"/>
<path d="M179.167 172.594V172.602C178.065 179.073 142.145 177.724 137.172 177.724C132.199 177.724 128.055 176.896 123.082 173.587C118.11 170.277 120.596 166.14 120.596 166.14C120.596 166.14 124.83 162.921 124.83 162.093C124.83 161.266 124.001 154.647 128.145 156.301C128.145 156.301 128.518 147.812 132.886 150.402C132.886 150.402 147.374 161.896 161.331 151.611C161.331 151.611 167.837 150.42 167.008 153.729C166.18 157.039 167.008 159.521 168.666 159.521C170.324 159.521 177.783 162.003 177.783 163.658C177.783 164.014 178.322 167.439 179.167 172.594Z" fill="#3F3D56"/>
<path d="M174.882 141.732C174.882 141.732 168.252 127.666 161.621 134.285C154.991 140.904 169.08 150.833 169.08 150.833L174.882 141.732Z" fill="#FFB8B8"/>
<path d="M174.882 138.422C174.882 138.422 164.644 151.339 161.475 152.327C161.475 152.327 170.738 188.894 182.341 198.823L188.972 232.746C188.972 232.746 217.151 221.163 210.52 202.132C210.454 201.942 210.388 201.753 210.322 201.565C204.786 185.717 197.146 170.681 187.606 156.861L174.882 138.422Z" fill="#35328C"/>
<path opacity="0.2" d="M169.411 176.734L189.8 232.746L182.341 198.823L169.411 176.734Z" fill="black"/>
<path d="M166.896 107.982L148.158 98.1829L122.281 102.191L116.927 125.798L130.254 125.286L133.978 116.613V125.143L140.127 124.907L143.696 111.099L145.927 125.798L167.789 125.353L166.896 107.982Z" fill="#2F2E41"/>
<path d="M343.915 235.314L354.547 273.175C354.547 273.175 352.356 306.71 362.58 300.149C373.042 293.435 369.152 265.156 369.152 265.156L363.024 231.189L343.915 235.314Z" fill="#A0616A"/>
<path d="M349.596 129.105L358.376 137.869V179.631C358.376 179.631 363.54 187.365 362.507 189.427C361.475 191.49 360.442 191.49 361.475 193.036C362.507 194.583 363.54 195.614 362.507 196.645C361.475 197.677 361.475 200.254 362.507 201.286C363.54 202.317 365.606 203.864 364.057 205.41C362.507 206.957 360.442 205.926 362.507 211.597C364.573 217.269 368.188 218.815 367.155 220.878C366.123 222.94 366.123 228.096 366.123 228.096L343.915 231.189L339.267 172.929L349.596 129.105Z" fill="#D0CDE1"/>
<path d="M367.156 227.58L341.333 228.611L342.366 239.439L365.09 235.314L367.156 227.58Z" fill="#3F3D56"/>
<path d="M296.144 75.2266L293.045 106.161L324.549 110.801L326.873 93.0142L329.197 75.2266H296.144Z" fill="#A0616A"/>
<path opacity="0.1" d="M296.144 75.059L293.045 105.994L324.549 110.634L326.873 92.8466L329.197 75.059H296.144Z" fill="black"/>
<path d="M227.715 222.424L245.274 260.062C245.274 260.062 248.373 277.591 253.021 278.107C257.669 278.622 262.317 260.062 262.317 260.062L256.12 250.266L248.889 222.424H227.715Z" fill="#A0616A"/>
<path d="M347.913 299.216H248.641C249.428 286.795 249.923 279.137 249.923 279.137L251.241 277.065L257.634 267.037L262.198 259.878L263.79 257.378L264.381 256.453L270.633 255.313L335.135 243.564C336.202 248.333 337.711 252.992 339.644 257.481C340.084 258.48 340.556 259.479 341.062 260.468C342.684 263.627 344.663 266.621 347.015 268.825C347.551 269.327 347.939 270.665 348.19 272.722C348.81 277.762 348.633 287.134 347.913 299.216Z" fill="#2F2E41"/>
<path d="M313.445 85.2804C327.136 85.2804 338.234 74.2004 338.234 60.5326C338.234 46.8647 327.136 35.7848 313.445 35.7848C299.754 35.7848 288.656 46.8647 288.656 60.5326C288.656 74.2004 299.754 85.2804 313.445 85.2804Z" fill="#A0616A"/>
<path d="M258.185 111.059L254.57 108.997C254.57 108.997 238.56 119.824 233.396 144.056C228.231 168.289 224.616 174.476 224.616 174.476C224.616 174.476 219.452 175.507 223.067 179.116C226.682 182.725 226.682 182.209 223.583 184.272C220.485 186.334 218.419 182.209 220.485 186.334C222.55 190.458 225.133 189.427 223.067 192.005C221.001 194.583 217.386 194.583 219.452 196.645C221.518 198.708 217.386 203.348 219.968 205.41C222.55 207.473 223.583 207.988 223.583 211.597C223.568 213.704 223.917 215.797 224.616 217.784H251.472C251.472 217.784 246.307 207.988 247.856 205.926C249.406 203.864 249.922 201.801 248.889 200.77C247.856 199.739 244.758 201.801 247.856 199.223C250.955 196.645 251.988 198.192 250.955 195.099C249.922 192.005 247.856 193.552 249.922 192.005C251.988 190.458 253.537 190.974 252.504 189.427C251.472 187.881 249.406 187.881 251.472 186.849C253.537 185.818 255.087 186.849 254.57 184.272C254.054 181.694 253.537 182.725 254.57 181.694C255.603 180.662 266.448 145.603 266.448 144.572C266.448 143.541 258.185 111.059 258.185 111.059Z" fill="#D0CDE1"/>
<path d="M253.021 215.722L220.485 217.784L228.748 225.518L251.472 226.033L253.021 215.722Z" fill="#3F3D56"/>
<path d="M262.317 254.39L255.603 266.764C255.603 266.764 275.744 269.342 282.975 271.92C290.205 274.498 308.797 278.107 308.797 278.107L313.445 260.062L262.317 254.39Z" fill="#3F3D56"/>
<path d="M321.192 260.062L326.873 277.076L349.596 272.435L347.014 256.453L321.192 260.062Z" fill="#3F3D56"/>
<path d="M330.488 93.5296C330.488 93.5296 328.939 92.4985 325.323 94.5608C321.708 96.6231 309.83 97.6542 304.149 91.4673C298.468 85.2804 294.337 80.1246 292.787 81.1557C291.238 82.1869 290.205 94.0452 290.205 94.0452L285.041 98.1698L254.57 108.997L257.152 178.6L261.8 194.583C261.8 194.583 258.185 206.957 262.833 214.175C267.481 221.393 260.251 223.971 260.251 223.971C260.251 223.971 258.702 226.033 259.735 231.189C260.768 236.345 258.702 255.421 258.702 255.421C258.702 255.421 302.6 275.013 348.563 257.999L343.399 238.407L340.817 194.583C340.817 194.583 343.399 187.365 342.883 184.272C342.366 181.178 358.376 137.869 358.376 137.869C358.376 137.869 355.794 116.215 342.366 111.575C328.939 106.935 326.873 102.294 326.873 102.294C326.873 102.294 333.07 95.5919 330.488 93.5296Z" fill="#D0CDE1"/>
<path d="M288.484 63.7028C288.484 63.7028 285.909 59.8479 286.9 55.6965C287.491 53.3395 287.725 50.9072 287.593 48.4809C287.593 48.4809 289.672 41.7596 291.751 38.0035C293.83 34.2475 292.84 32.666 299.375 31.4799C305.909 30.2937 303.236 21.7932 320.464 30.9856C321.045 31.7958 321.854 32.4159 322.788 32.7678C323.721 33.1196 324.739 33.1874 325.711 32.9625C329.276 32.2706 330.563 37.2128 330.563 37.2128C330.563 37.2128 332.939 35.829 333.83 37.8058C334.721 39.7827 341.075 36.6194 341.075 49.9632C341.075 63.3071 333.845 75.2266 333.845 75.2266C333.845 75.2266 334.375 52.7806 322.593 50.5072C310.81 48.2338 298.137 41.6113 295.068 50.1118C291.999 58.6124 288.484 63.7028 288.484 63.7028Z" fill="#2F2E41"/>
<path d="M334.103 69.0396C335.386 69.0396 336.427 67.6546 336.427 65.9462C336.427 64.2377 335.386 62.8527 334.103 62.8527C332.819 62.8527 331.779 64.2377 331.779 65.9462C331.779 67.6546 332.819 69.0396 334.103 69.0396Z" fill="#A0616A"/>
</svg>
