<svg width="53" height="53" viewBox="0 0 53 53" fill="none" xmlns="http://www.w3.org/2000/svg">
<path d="M26.5 46.6071C22.5232 46.6071 18.6357 45.4278 15.3291 43.2184C12.0225 41.009 9.44537 37.8687 7.92351 34.1946C6.40166 30.5206 6.00347 26.4777 6.7793 22.5773C7.55514 18.6769 9.47015 15.0942 12.2822 12.2822C15.0942 9.47015 18.6769 7.55514 22.5773 6.7793C26.4777 6.00347 30.5206 6.40166 34.1946 7.92351C37.8687 9.44537 41.009 12.0225 43.2184 15.3291C45.4278 18.6357 46.6071 22.5232 46.6071 26.5C46.601 31.8309 44.4806 36.9417 40.7111 40.7111C36.9417 44.4806 31.8309 46.601 26.5 46.6071ZM26.5 7.82539C22.8065 7.82539 19.196 8.92063 16.1249 10.9726C13.0539 13.0246 10.6603 15.9412 9.24691 19.3535C7.83347 22.7659 7.46365 26.5207 8.18421 30.1432C8.90478 33.7658 10.6834 37.0933 13.2951 39.705C15.9067 42.3167 19.2342 44.0952 22.8568 44.8158C26.4793 45.5364 30.2341 45.1665 33.6465 43.7531C37.0588 42.3397 39.9754 39.9461 42.0274 36.8751C44.0794 33.804 45.1746 30.1935 45.1746 26.5C45.1697 21.5487 43.2006 16.8016 39.6995 13.3005C36.1984 9.7994 31.4513 7.83032 26.5 7.82539Z" fill="white"/>
<path d="M12.9349 23.2835C12.8246 23.2836 12.7158 23.2583 12.6169 23.2095C12.518 23.1608 12.4317 23.0898 12.3647 23.0022C12.2978 22.9145 12.252 22.8127 12.2308 22.7044C12.2097 22.5962 12.2139 22.4845 12.243 22.3782C12.9083 19.9594 14.1901 17.7547 15.9631 15.9799C17.736 14.2051 19.9393 12.9209 22.3574 12.253C22.4482 12.2282 22.5429 12.2215 22.6363 12.2333C22.7296 12.2451 22.8198 12.2751 22.9015 12.3218C22.9832 12.3684 23.055 12.4306 23.1127 12.505C23.1703 12.5793 23.2128 12.6643 23.2376 12.7551C23.2625 12.8459 23.2692 12.9406 23.2574 13.034C23.2456 13.1273 23.2155 13.2175 23.1689 13.2992C23.1223 13.3809 23.06 13.4527 22.9857 13.5104C22.9113 13.568 22.8263 13.6105 22.7356 13.6353C20.5575 14.2367 18.5729 15.3933 16.9759 16.9918C15.379 18.5904 14.2244 20.5762 13.6253 22.7549C13.5841 22.9066 13.4942 23.0404 13.3695 23.136C13.2447 23.2315 13.092 23.2833 12.9349 23.2835Z" fill="white"/>
<path d="M36.4984 32.7526C36.3584 32.7526 36.2215 32.7117 36.1046 32.6348C35.9876 32.5578 35.8958 32.4484 35.8404 32.3198C35.785 32.1913 35.7685 32.0493 35.7929 31.9115C35.8173 31.7737 35.8815 31.646 35.9777 31.5443C36.4676 31.0267 36.9429 30.5092 37.4037 29.9916C37.4655 29.9189 37.5413 29.8593 37.6264 29.8163C37.7116 29.7733 37.8046 29.7478 37.8997 29.7412C37.9949 29.7347 38.0905 29.7472 38.1808 29.778C38.2711 29.8089 38.3543 29.8575 38.4255 29.921C38.4968 29.9844 38.5546 30.0615 38.5957 30.1476C38.6367 30.2338 38.6601 30.3272 38.6646 30.4226C38.669 30.5179 38.6543 30.6131 38.6214 30.7027C38.5885 30.7923 38.5381 30.8744 38.473 30.9441C38.0027 31.4722 37.518 32.0003 37.0191 32.5284C36.9521 32.5992 36.8714 32.6557 36.7819 32.6942C36.6923 32.7328 36.5959 32.7526 36.4984 32.7526Z" fill="white"/>
<path d="M7.14997 51.5511C6.38372 51.599 5.61568 51.492 4.89174 51.2364C4.16779 50.9808 3.50279 50.5819 2.93647 50.0635C-0.0716399 47.0755 1.5377 40.1038 7.25167 31.4176C7.35762 31.2624 7.5203 31.1551 7.70464 31.1187C7.88899 31.0824 8.08024 31.1199 8.23715 31.2233C8.39407 31.3266 8.50408 31.4875 8.54348 31.6712C8.58287 31.855 8.54849 32.0468 8.44775 32.2054C3.21937 40.1554 1.49329 46.6143 3.94991 49.0515C6.39078 51.5125 12.8468 49.7878 20.7996 44.5573C20.8199 44.5435 20.841 44.5309 20.8626 44.5193C23.0605 43.0513 25.1812 41.4709 27.2162 39.7844C27.2885 39.7227 27.3724 39.676 27.463 39.647C27.5535 39.618 27.649 39.6074 27.7437 39.6157C27.8384 39.624 27.9305 39.6511 28.0147 39.6954C28.0988 39.7397 28.1733 39.8002 28.2338 39.8736C28.2943 39.947 28.3395 40.0317 28.367 40.1227C28.3944 40.2138 28.4034 40.3093 28.3935 40.4039C28.3835 40.4985 28.3549 40.5901 28.3092 40.6735C28.2635 40.7569 28.2016 40.8303 28.1272 40.8895C26.0347 42.6211 23.8535 44.2427 21.5925 45.7476C21.5709 45.7621 21.5484 45.7753 21.5251 45.787C15.751 49.578 10.7346 51.5511 7.14997 51.5511Z" fill="white"/>
<path d="M31.4641 37.7518C31.3196 37.7519 31.1785 37.7084 31.0592 37.6269C30.9399 37.5454 30.8481 37.4298 30.7957 37.2952C30.7434 37.1605 30.7329 37.0132 30.7658 36.8725C30.7987 36.7319 30.8733 36.6044 30.9799 36.507C31.3602 36.1589 31.7362 35.8029 32.1144 35.4448L32.4897 35.0867C32.5581 35.0221 32.6386 34.9717 32.7265 34.9382C32.8145 34.9047 32.9081 34.8889 33.0022 34.8916C33.0962 34.8944 33.1888 34.9156 33.2746 34.9541C33.3605 34.9926 33.4379 35.0476 33.5024 35.1161C33.567 35.1845 33.6175 35.265 33.6509 35.3529C33.6844 35.4408 33.7002 35.5345 33.6975 35.6285C33.6948 35.7225 33.6735 35.8151 33.635 35.901C33.5965 35.9868 33.5415 36.0642 33.4731 36.1288L33.0992 36.4819C32.7153 36.8457 32.3336 37.2074 31.9468 37.5612C31.8154 37.6829 31.6432 37.7508 31.4641 37.7518Z" fill="white"/>
<path d="M41.1889 27.3451C41.0543 27.345 40.9224 27.3069 40.8084 27.2353C40.6944 27.1636 40.6029 27.0612 40.5445 26.94C40.486 26.8187 40.4629 26.6834 40.4778 26.5496C40.4927 26.4158 40.5451 26.2889 40.6288 26.1834C42.0526 24.3929 43.3605 22.6024 44.5164 20.8605C44.5272 20.8396 44.5392 20.8193 44.5522 20.7996C49.7806 12.8496 51.5067 6.3908 49.0501 3.95352C46.6099 1.49331 40.154 3.21796 32.2004 8.45136C32.1219 8.50495 32.0335 8.54239 31.9404 8.56147C31.8473 8.58056 31.7513 8.58092 31.658 8.56254C31.5647 8.54415 31.4761 8.50739 31.3972 8.45438C31.3183 8.40138 31.2507 8.3332 31.1984 8.25382C31.1461 8.17444 31.1102 8.08544 31.0926 7.99202C31.0751 7.8986 31.0763 7.80262 31.0962 7.70968C31.1162 7.61674 31.1544 7.52869 31.2087 7.45068C31.263 7.37266 31.3323 7.30624 31.4125 7.25527C40.1002 1.53772 47.0712 -0.0716183 50.0635 2.94007C53.0673 5.92168 51.4695 12.8697 45.7856 21.5302C45.774 21.5525 45.7614 21.5743 45.7476 21.5954C44.5601 23.3859 43.2151 25.2309 41.7497 27.0744C41.6828 27.1591 41.5976 27.2274 41.5005 27.2743C41.4033 27.3212 41.2968 27.3455 41.1889 27.3451Z" fill="white"/>
</svg>
