<svg width="39" height="39" viewBox="0 0 39 39" fill="none" xmlns="http://www.w3.org/2000/svg">
<path d="M38.6263 18.9637L32.6585 16.7628C27.827 14.9811 24.0184 11.1727 22.237 6.34151L20.0358 0.373367C19.9531 0.149011 19.7392 0 19.5 0C19.2608 0 19.0469 0.149011 18.9642 0.373367L16.763 6.34118C14.9813 11.1727 11.1727 14.9811 6.34146 16.7628L0.373364 18.9637C0.149009 19.0464 0 19.2603 0 19.4995C0 19.7387 0.149009 19.9526 0.373364 20.0353L6.3418 22.2368C11.173 24.0186 14.9813 27.8269 16.763 32.6581L18.9642 38.6266C19.0469 38.851 19.2608 39 19.5 39C19.7392 39 19.9531 38.851 20.0358 38.6266L22.237 32.6581C24.0187 27.8269 27.827 24.0182 32.6582 22.2368L38.6266 20.0353C38.851 19.9526 39 19.7387 39 19.4995C39 19.2603 38.8507 19.0464 38.6263 18.9637Z" fill="white"/>
</svg>
